<?xml version="1.0" standalone="no"?>
<!DOCTYPE svg PUBLIC "-//W3C//DTD SVG 20010904//EN"
 "http://www.w3.org/TR/2001/REC-SVG-20010904/DTD/svg10.dtd">
<svg version="1.0" xmlns="http://www.w3.org/2000/svg"
 width="700.000000pt" height="700.000000pt" viewBox="0 0 700.000000 700.000000"
 preserveAspectRatio="xMidYMid meet">
<metadata>
Created by potrace 1.14, written by Peter Selinger 2001-2017
</metadata>
<g transform="translate(0.000000,700.000000) scale(0.100000,-0.100000)"
fill="#000000" stroke="none">
<path d="M3421 6404 c-72 -19 -158 -84 -301 -226 -247 -246 -442 -549 -576
-894 -67 -174 -144 -461 -160 -597 -4 -31 -10 -57 -14 -57 -14 0 -111 112
-160 184 -26 39 -63 103 -83 142 -67 134 -159 195 -287 190 -44 -1 -81 -9
-113 -25 -47 -23 -140 -109 -214 -198 -21 -25 -43 -51 -48 -57 -64 -68 -210
-290 -288 -436 -101 -191 -195 -443 -233 -623 -40 -192 -48 -246 -60 -392 -76
-967 386 -1894 1206 -2420 86 -55 279 -159 360 -193 153 -65 401 -143 528
-167 62 -11 81 -14 157 -25 142 -19 197 -23 360 -23 200 -1 378 16 525 48 14
4 36 8 50 11 313 63 703 240 982 446 197 145 407 352 533 523 16 22 32 42 35
45 24 19 158 241 221 365 132 263 209 504 255 798 39 258 35 612 -10 833 -2
12 -7 37 -10 55 -10 59 -36 168 -56 234 -189 612 -525 1069 -1080 1466 -58 42
-222 154 -365 249 -430 287 -614 425 -800 604 -145 138 -232 173 -354 140z
m184 -768 c58 -53 354 -266 610 -437 160 -107 322 -217 360 -244 282 -197 507
-426 657 -668 59 -95 158 -289 158 -309 0 -8 4 -18 9 -23 30 -33 115 -372 129
-515 17 -163 7 -462 -19 -593 -6 -29 -13 -65 -15 -80 -12 -66 -75 -262 -114
-353 -52 -121 -70 -158 -128 -254 -284 -470 -750 -811 -1285 -940 -78 -18
-121 -25 -292 -46 -59 -7 -291 -6 -360 1 -56 6 -141 18 -210 30 -225 40 -524
163 -731 302 -55 36 -101 69 -104 72 -3 3 -25 22 -50 41 -189 145 -390 386
-518 620 -72 133 -170 389 -188 494 -2 17 -7 38 -9 46 -4 16 -12 55 -20 105
-30 183 -31 443 -4 620 35 222 94 414 184 595 83 168 142 261 161 253 8 -3 14
-9 14 -13 0 -12 184 -197 255 -257 113 -95 257 -188 395 -256 119 -59 248 -39
340 53 59 59 81 117 85 225 8 181 17 305 29 390 3 17 8 50 11 75 3 25 15 86
26 135 11 50 22 101 25 115 3 14 25 86 50 160 57 169 153 368 240 496 66 99
81 117 157 206 l40 47 46 -37 c25 -20 55 -45 66 -56z"/>
<path d="M3450 4075 c-70 -14 -112 -37 -156 -83 -49 -51 -42 -33 -259 -677
l-33 -100 -224 -5 c-219 -5 -224 -5 -280 -33 -65 -32 -112 -81 -141 -146 -24
-56 -29 -181 -11 -289 68 -388 294 -697 640 -871 85 -42 224 -89 289 -98 22
-2 58 -9 79 -13 63 -14 303 -5 381 14 177 43 277 85 418 179 310 205 504 562
512 940 1 54 -1 119 -6 145 -4 26 -10 69 -13 95 -17 125 -104 330 -192 454
-131 184 -327 338 -526 415 -86 33 -228 67 -303 74 -38 3 -81 7 -95 8 -14 2
-50 -2 -80 -9z m400 -694 c240 -185 304 -524 145 -772 -225 -350 -720 -368
-966 -35 -16 21 -27 42 -24 45 2 4 52 7 112 6 165 -2 226 17 297 89 53 54 53
55 136 301 39 116 89 265 112 331 l41 121 51 -25 c28 -14 71 -41 96 -61z"/>
</g>
</svg>
